<svg width="700" height="148" viewBox="0 0 700 148" fill="none" xmlns="http://www.w3.org/2000/svg">
<mask id="path-1-inside-1_1395_1676" fill="white">
<path fill-rule="evenodd" clip-rule="evenodd" d="M496 0C482.745 0 472 10.7452 472 24V52H91V99H472H688V52V24C688 10.7452 677.255 0 664 0H496Z"/>
</mask>
<path fill-rule="evenodd" clip-rule="evenodd" d="M496 0C482.745 0 472 10.7452 472 24V52H91V99H472H688V52V24C688 10.7452 677.255 0 664 0H496Z" fill="white"/>
<path d="M472 52V54H474V52H472ZM91 52V50H89V52H91ZM91 99H89V101H91V99ZM688 99V101H690V99H688ZM474 24C474 11.8497 483.85 2 496 2V-2C481.641 -2 470 9.6406 470 24H474ZM474 52V24H470V52H474ZM91 54H472V50H91V54ZM93 99V52H89V99H93ZM472 97H91V101H472V97ZM688 97H472V101H688V97ZM686 52V99H690V52H686ZM686 24V52H690V24H686ZM664 2C676.15 2 686 11.8497 686 24H690C690 9.6406 678.359 -2 664 -2V2ZM496 2H664V-2H496V2Z" fill="black" mask="url(#path-1-inside-1_1395_1676)"/>
<mask id="path-3-inside-2_1395_1676" fill="white">
<path fill-rule="evenodd" clip-rule="evenodd" d="M508 0C494.745 0 484 10.7452 484 24V52H0V99H484H700V52V0H508Z"/>
</mask>
<path fill-rule="evenodd" clip-rule="evenodd" d="M508 0C494.745 0 484 10.7452 484 24V52H0V99H484H700V52V0H508Z" fill="#CCF3F5"/>
<path d="M484 52V54H486V52H484ZM0 52V50H-2V52H0ZM0 99H-2V101H0V99ZM700 99V101H702V99H700ZM700 0H702V-2H700V0ZM486 24C486 11.8497 495.85 2 508 2V-2C493.641 -2 482 9.6406 482 24H486ZM486 52V24H482V52H486ZM0 54H484V50H0V54ZM2 99V52H-2V99H2ZM484 97H0V101H484V97ZM700 97H484V101H700V97ZM698 52V99H702V52H698ZM698 0V52H702V0H698ZM508 2H700V-2H508V2Z" fill="black" mask="url(#path-3-inside-2_1395_1676)"/>
<path fill-rule="evenodd" clip-rule="evenodd" d="M88.4242 79.0729C87.8421 78.7283 87.3971 78.2332 87.0893 77.5875C86.7815 76.9418 86.6276 76.1756 86.6276 75.2891C86.6276 74.4025 86.7849 73.6363 87.096 72.9906C87.4071 72.3449 87.8554 71.8531 88.4309 71.5119C89.0097 71.1706 89.6922 71 90.4851 71C91.278 71 91.9739 71.1706 92.556 71.5119C93.1381 71.8531 93.5831 72.3416 93.8909 72.9839C94.1987 73.6263 94.3526 74.3924 94.3526 75.2857C94.3526 76.179 94.1954 76.9384 93.8842 77.5841C93.5731 78.2298 93.1248 78.725 92.5426 79.0696C91.9605 79.4142 91.2746 79.5848 90.4817 79.5848C89.6888 79.5848 89.003 79.4142 88.4209 79.0696L88.4242 79.0729ZM88.8223 77.4804C89.2171 77.999 89.7725 78.2566 90.4851 78.2566C91.1977 78.2566 91.7464 77.9956 92.1545 77.4737C92.5627 76.9518 92.7668 76.2225 92.7668 75.2891C92.7668 74.3556 92.5661 73.6062 92.1679 73.091C91.7698 72.5758 91.2077 72.3182 90.4884 72.3182C89.7691 72.3182 89.2305 72.5791 88.8324 73.0977C88.4342 73.6163 88.2335 74.3456 88.2335 75.2891C88.2335 76.2325 88.4309 76.9619 88.8257 77.4804H88.8223ZM32.2683 75.55L32.2449 72.4754H30V71.1807H36.0422V72.4754H33.8106L33.7738 75.55L33.8207 79.4075H32.2282L32.265 75.55H32.2683ZM38.2502 78.6781C37.6949 78.0726 37.4272 77.1559 37.444 75.9281L37.4674 73.459L37.444 71.1807H39.0365L38.9997 73.459L39.0365 76.1054C39.0532 77.5373 39.6387 78.2533 40.7929 78.2533C41.9471 78.2533 42.546 77.5373 42.5627 76.1054L42.5861 73.459L42.5627 71.1807H44.1418L44.1184 73.459L44.1418 75.9281C44.1586 77.1559 43.8909 78.0726 43.3389 78.6781C42.7869 79.2837 41.9404 79.5848 40.7929 79.5848C39.6454 79.5848 38.8056 79.2837 38.2536 78.6781H38.2502ZM50.0268 71.184L50.0636 75.3024L50.0669 75.3058L50.0301 79.4142H52.5962C54.0515 79.4142 55.1388 79.0662 55.8548 78.3704C56.5707 77.6711 56.9287 76.6173 56.9287 75.1987C56.9287 73.8672 56.5674 72.8668 55.8414 72.1944C55.1154 71.5219 54.0348 71.184 52.5928 71.184H50.0268ZM52.5928 78.0692H51.5958V78.0726L51.559 75.3058L51.5958 72.5156H52.5928C54.4262 72.5156 55.3463 73.4088 55.3463 75.1987C55.3463 76.179 55.1188 76.9016 54.6638 77.37C54.2088 77.8351 53.5196 78.0692 52.5928 78.0692ZM58.6952 75.2891L58.6584 71.1807H60.2509L60.2141 75.2891L60.2509 79.4108H58.6584L58.6952 75.2891ZM62.3954 71.184L62.4322 75.3024L62.4356 75.3058L62.3988 79.4142H63.9177L63.8943 75.8511V73.4155H63.9311L65.4868 76.1355L67.2901 79.4142H69.0465L69.0097 75.2924L69.0465 71.184H67.5276L67.551 74.7337V77.1693H67.5142L66.1358 74.7471L64.1519 71.184H62.3954ZM71.2245 75.2891L71.1877 71.1807H76.8886V72.4754H72.7568L72.7434 74.5999H76.6009V75.811H72.7434L72.7568 78.1127H76.9956V79.4075H71.191L71.2278 75.2857L71.2245 75.2891ZM78.7721 71.1807L78.8089 75.2891L78.8056 75.2824L78.7688 79.4041H80.3613L80.3379 76.2693H81.7497C82.1311 76.2693 82.4222 76.3028 82.6296 76.3663C82.837 76.4299 82.9943 76.5671 83.1047 76.7712C83.2151 76.9752 83.2887 77.2897 83.3188 77.7079C83.3924 78.5878 83.4827 79.1532 83.5932 79.4075H85.1957C85.1154 79.2603 85.0518 79.0428 85.005 78.7618C84.9582 78.4808 84.9147 78.1094 84.8745 77.651C84.8277 77.1291 84.7206 76.7076 84.5533 76.3864C84.3861 76.0652 84.1351 75.8244 83.8039 75.6671C84.6838 75.3426 85.1221 74.6735 85.1221 73.6598C85.1221 72.8367 84.8544 72.2178 84.3158 71.8029C83.7772 71.3881 82.9843 71.1807 81.9304 71.1807H78.7721ZM83.175 74.737C82.8906 74.9612 82.4757 75.0749 81.9204 75.0749H80.3412V72.4754H81.9438C82.5058 72.4754 82.924 72.5825 83.1917 72.7966C83.4627 73.0107 83.5965 73.352 83.5965 73.7702C83.5965 74.1884 83.456 74.5129 83.175 74.737ZM99.9699 71.184L100.007 75.3024L100.01 75.3058L99.9732 79.4142H102.539C103.995 79.4142 105.082 79.0662 105.798 78.3704C106.514 77.6711 106.872 76.6173 106.872 75.1987C106.872 73.8672 106.511 72.8668 105.785 72.1944C105.059 71.5219 103.978 71.184 102.536 71.184H99.9699ZM102.536 78.0692H101.539L101.502 75.3058L101.539 72.5156H102.536C104.369 72.5156 105.289 73.4088 105.289 75.1987C105.289 76.179 105.062 76.9016 104.607 77.37C104.152 77.8351 103.463 78.0692 102.536 78.0692ZM108.638 75.2891L108.602 71.1807H114.302V72.4754H110.171L110.157 74.5999H114.015V75.811H110.157L110.171 78.1127H114.409V79.4075H108.605L108.642 75.2857L108.638 75.2891ZM119.394 71.1807L120.856 75.2054V75.2088L122.305 79.4108H123.931L125.366 75.2188L126.815 71.1807H125.166L124.025 74.9311L123.158 77.6611H123.135L122.245 74.9311L121.094 71.1807H119.394ZM129 78.6781C128.444 78.0726 128.177 77.1559 128.193 75.9281L128.217 73.459L128.193 71.1807H129.786L129.749 73.459L129.786 76.1054C129.803 77.5373 130.388 78.2533 131.542 78.2533C132.697 78.2533 133.295 77.5373 133.312 76.1054L133.336 73.459L133.312 71.1807H134.891L134.868 73.459L134.891 75.9281C134.908 77.1559 134.64 78.0726 134.088 78.6781C133.536 79.2837 132.69 79.5848 131.542 79.5848C130.395 79.5848 129.555 79.2837 129.003 78.6781H129ZM136.925 71.1807L136.962 75.2891L136.965 75.2857L136.929 79.4075H142.733V78.1127H138.494L138.481 75.811H142.339V74.5999H138.481L138.494 72.4754H142.626V71.1807H136.925ZM144.547 75.0749L144.51 71.1807H146.102L146.066 75.0749L146.089 78.0659H149.816V79.4075H144.51L144.547 75.0749ZM152.141 72.4754L152.165 75.55H152.161L152.124 79.4075H153.717L153.67 75.55L153.707 72.4754H155.938V71.1807H149.896V72.4754H152.141ZM157.431 75.2891L158.856 71.1807H160.602L162.051 75.2891L163.583 79.4108H161.884L161.241 77.4771L159.709 77.4637L158.2 77.4771L157.571 79.4108H155.922L157.431 75.2891ZM159.709 76.276H159.712L160.897 76.2626L159.722 72.83H159.699L158.548 76.2626L159.709 76.276ZM165.845 79.5179C165.861 79.6986 165.788 79.8725 165.621 80.0398V80.0365C165.453 80.2037 165.202 80.3242 164.861 80.3944L165.038 81C165.728 80.8963 166.213 80.642 166.494 80.2339C166.775 79.829 166.915 79.3673 166.915 78.8521C166.915 78.173 166.604 77.8317 165.989 77.8317C165.694 77.8317 165.467 77.9053 165.299 78.0525C165.132 78.1997 165.048 78.4038 165.048 78.6648C165.048 79.1532 165.313 79.4376 165.845 79.5179ZM173.185 78.9056C172.559 78.4506 172.175 77.7949 172.034 76.9418L173.944 76.4533C174.175 77.3065 174.747 77.7347 175.667 77.7347C176.015 77.7347 176.283 77.6711 176.47 77.544C176.658 77.4169 176.748 77.2429 176.748 77.0221C176.748 76.8013 176.648 76.6072 176.444 76.4701C176.243 76.3329 175.908 76.2191 175.44 76.1321C174.403 75.9414 173.62 75.6403 173.095 75.2288C172.569 74.8173 172.305 74.2318 172.305 73.4724C172.305 72.7129 172.579 72.0907 173.125 71.6557C173.67 71.2208 174.436 71.0033 175.416 71.0033C176.397 71.0033 177.186 71.2208 177.785 71.649C178.384 72.0806 178.755 72.6695 178.906 73.4122L176.935 73.9341C176.895 73.6163 176.751 73.3553 176.5 73.1445C176.25 72.9338 175.922 72.83 175.51 72.83C175.202 72.83 174.965 72.8903 174.804 73.0074C174.64 73.1278 174.56 73.2884 174.56 73.4958C174.56 73.7032 174.654 73.8839 174.844 74.0177C175.035 74.1516 175.373 74.2686 175.865 74.3623C176.982 74.553 177.788 74.8675 178.294 75.3058C178.796 75.7441 179.046 76.3329 179.046 77.0689C179.046 77.8852 178.739 78.5075 178.12 78.9391C177.501 79.3707 176.711 79.5848 175.744 79.5848C174.66 79.5848 173.804 79.3573 173.178 78.9023L173.185 78.9056ZM180.582 71.184L180.619 75.3024L180.582 79.4108H182.991L182.944 75.3024L182.991 71.184H180.582ZM184.941 75.3024L184.905 71.184H191.077V73.0375H187.29L187.277 74.4393H190.756V76.0418H187.277L187.29 77.5607H191.184V79.4142H184.905L184.941 75.3058V75.3024ZM192.867 71.1807L192.904 75.5032H192.894L192.857 79.4108H194.948L194.911 76.1924V73.807H194.935L195.684 76.2994L196.574 79.4108H198.401L199.281 76.2894L200.03 73.807H200.067V76.1924L200.02 79.4108H202.111L202.088 75.1117L202.101 71.1807H199.087L198.197 74.2218L197.521 76.4299H197.474L196.785 74.2218L195.881 71.1807H192.867ZM204.068 75.2891V75.2857L204.031 71.1807H207.558C208.688 71.1807 209.555 71.4149 210.157 71.8866C210.759 72.3583 211.061 73.0676 211.061 74.0177C211.061 74.9679 210.759 75.6905 210.157 76.1623C209.555 76.634 208.678 76.8682 207.521 76.8682H206.417L206.44 79.4075H204.031L204.068 75.2891ZM207.594 75.0649C208.401 75.0649 208.806 74.7237 208.806 74.0445C208.806 73.7267 208.705 73.4858 208.501 73.3218C208.3 73.1546 207.996 73.0709 207.594 73.0709H206.407V75.0649H207.594ZM212.412 71.1807L212.449 75.2891L212.452 75.2857L212.415 79.4075H214.824L214.801 76.6407H215.644C215.915 76.6407 216.126 76.6708 216.28 76.7344C216.433 76.7979 216.551 76.9117 216.634 77.0723C216.718 77.2362 216.771 77.4737 216.795 77.7916C216.882 78.6012 216.982 79.1398 217.103 79.4075H219.525C219.451 79.2335 219.398 79.0194 219.358 78.7618C219.317 78.5042 219.271 78.1429 219.214 77.6745C219.157 77.2295 219.043 76.8715 218.869 76.5938C218.695 76.3162 218.458 76.1087 218.156 75.9649C218.578 75.7842 218.896 75.5166 219.113 75.1586C219.331 74.8006 219.441 74.3791 219.441 73.8873C219.441 72.994 219.167 72.3182 218.611 71.8632C218.056 71.4082 217.236 71.1807 216.152 71.1807H212.412ZM216.858 74.7538C216.641 74.921 216.32 75.0047 215.892 75.0047V75.0013H214.787V73.0642H215.975C216.781 73.0642 217.186 73.3854 217.186 74.0278C217.186 74.3456 217.076 74.5865 216.858 74.7538ZM221.228 75.3024L221.191 71.184H227.364V73.0375H223.576L223.563 74.4393H227.042V76.0418H223.563L223.576 77.5607H227.471V79.4142H221.191L221.228 75.3058V75.3024ZM229.117 78.4339C229.117 78.8086 229.237 79.093 229.475 79.2904C229.712 79.4878 230.053 79.5882 230.495 79.5882C230.937 79.5882 231.278 79.4878 231.516 79.2904C231.753 79.0897 231.873 78.8053 231.873 78.4339C231.873 78.0626 231.753 77.7782 231.516 77.5841C231.278 77.3901 230.937 77.2931 230.495 77.2931C230.053 77.2931 229.712 77.3901 229.475 77.5841C229.237 77.7782 229.117 78.0592 229.117 78.4339Z" fill="#211F1E"/>
<rect width="700" height="49" transform="translate(0 99)" fill="#F47920"/>
<path d="M233.912 123.81C233.83 124.293 233.62 124.669 233.284 124.938C232.947 125.202 232.544 125.335 232.075 125.335C231.485 125.335 230.98 125.124 230.561 124.701C230.142 124.279 229.932 123.716 229.932 123.015C229.932 122.359 230.12 121.812 230.496 121.371C230.876 120.931 231.37 120.71 231.979 120.71C232.362 120.71 232.707 120.787 233.015 120.941C233.549 121.217 233.839 121.675 233.885 122.316H233.235C233.203 122.048 233.09 121.815 232.897 121.618C232.704 121.421 232.423 121.323 232.054 121.323C231.535 121.323 231.159 121.556 230.926 122.021C230.776 122.318 230.7 122.639 230.7 122.982C230.7 123.473 230.82 123.887 231.06 124.223C231.304 124.556 231.655 124.723 232.113 124.723C232.407 124.723 232.652 124.646 232.849 124.492C233.046 124.334 233.184 124.107 233.262 123.81H233.912ZM231.973 119.642C231.039 119.642 230.242 119.975 229.583 120.641C228.928 121.303 228.6 122.103 228.6 123.042C228.6 123.987 228.926 124.792 229.578 125.458C230.237 126.125 231.035 126.458 231.973 126.458C232.911 126.458 233.71 126.125 234.369 125.458C235.02 124.792 235.346 123.987 235.346 123.042C235.346 122.103 235.019 121.303 234.363 120.641C233.708 119.975 232.911 119.642 231.973 119.642ZM235.921 123.042C235.921 124.134 235.536 125.066 234.766 125.84C233.996 126.613 233.065 127 231.973 127C230.881 127 229.95 126.613 229.18 125.84C228.41 125.066 228.026 124.134 228.026 123.042C228.026 121.953 228.41 121.026 229.18 120.259C229.95 119.493 230.881 119.11 231.973 119.11C233.065 119.11 233.996 119.493 234.766 120.259C235.536 121.026 235.921 121.953 235.921 123.042ZM236.403 127C236.439 126.338 236.575 125.761 236.811 125.271C237.051 124.78 237.517 124.334 238.208 123.933L239.239 123.337C239.701 123.068 240.025 122.839 240.211 122.649C240.505 122.352 240.651 122.012 240.651 121.629C240.651 121.181 240.517 120.827 240.249 120.565C239.98 120.3 239.622 120.168 239.174 120.168C238.512 120.168 238.054 120.419 237.799 120.92C237.663 121.188 237.588 121.561 237.574 122.037H236.591C236.602 121.368 236.725 120.821 236.962 120.399C237.38 119.654 238.12 119.282 239.18 119.282C240.061 119.282 240.703 119.52 241.108 119.996C241.516 120.472 241.72 121.002 241.72 121.586C241.72 122.202 241.504 122.728 241.07 123.165C240.82 123.419 240.37 123.727 239.722 124.089L238.986 124.497C238.636 124.69 238.36 124.875 238.159 125.05C237.801 125.362 237.576 125.707 237.483 126.087H241.683V127H236.403ZM245.178 119.309C246.173 119.309 246.893 119.719 247.337 120.539C247.681 121.172 247.853 122.041 247.853 123.144C247.853 124.189 247.697 125.054 247.385 125.738C246.934 126.719 246.197 127.209 245.172 127.209C244.249 127.209 243.561 126.808 243.11 126.006C242.734 125.337 242.546 124.438 242.546 123.31C242.546 122.436 242.659 121.686 242.884 121.06C243.307 119.892 244.071 119.309 245.178 119.309ZM245.167 126.329C245.668 126.329 246.068 126.107 246.365 125.663C246.662 125.219 246.811 124.391 246.811 123.181C246.811 122.307 246.703 121.59 246.488 121.027C246.274 120.462 245.856 120.179 245.237 120.179C244.668 120.179 244.25 120.447 243.985 120.984C243.724 121.518 243.593 122.306 243.593 123.348C243.593 124.132 243.678 124.762 243.846 125.238C244.104 125.965 244.544 126.329 245.167 126.329ZM248.689 127C248.725 126.338 248.861 125.761 249.097 125.271C249.337 124.78 249.803 124.334 250.494 123.933L251.525 123.337C251.987 123.068 252.311 122.839 252.497 122.649C252.791 122.352 252.938 122.012 252.938 121.629C252.938 121.181 252.803 120.827 252.535 120.565C252.266 120.3 251.908 120.168 251.461 120.168C250.798 120.168 250.34 120.419 250.086 120.92C249.949 121.188 249.874 121.561 249.86 122.037H248.877C248.888 121.368 249.011 120.821 249.248 120.399C249.667 119.654 250.406 119.282 251.466 119.282C252.347 119.282 252.989 119.52 253.394 119.996C253.802 120.472 254.006 121.002 254.006 121.586C254.006 122.202 253.79 122.728 253.357 123.165C253.106 123.419 252.656 123.727 252.008 124.089L251.273 124.497C250.922 124.69 250.646 124.875 250.445 125.05C250.087 125.362 249.862 125.707 249.769 126.087H253.969V127H248.689ZM257.346 127.209C256.436 127.209 255.776 126.961 255.364 126.463C254.956 125.962 254.752 125.353 254.752 124.637H255.761C255.804 125.134 255.897 125.496 256.041 125.722C256.291 126.126 256.744 126.329 257.399 126.329C257.908 126.329 258.316 126.193 258.624 125.92C258.932 125.648 259.086 125.297 259.086 124.868C259.086 124.338 258.923 123.967 258.597 123.756C258.275 123.545 257.826 123.439 257.249 123.439C257.185 123.439 257.118 123.441 257.05 123.444C256.986 123.444 256.92 123.446 256.852 123.45V122.596C256.952 122.606 257.036 122.614 257.104 122.617C257.172 122.621 257.246 122.623 257.324 122.623C257.686 122.623 257.983 122.565 258.216 122.451C258.624 122.25 258.828 121.892 258.828 121.376C258.828 120.993 258.692 120.698 258.42 120.49C258.148 120.283 257.831 120.179 257.469 120.179C256.825 120.179 256.379 120.394 256.132 120.823C255.996 121.06 255.919 121.396 255.901 121.833H254.945C254.945 121.26 255.059 120.773 255.289 120.372C255.683 119.656 256.375 119.298 257.367 119.298C258.151 119.298 258.758 119.473 259.188 119.824C259.618 120.172 259.833 120.676 259.833 121.339C259.833 121.812 259.705 122.195 259.451 122.488C259.294 122.671 259.09 122.814 258.839 122.918C259.244 123.029 259.559 123.244 259.784 123.562C260.013 123.878 260.128 124.264 260.128 124.723C260.128 125.457 259.886 126.055 259.403 126.517C258.919 126.979 258.234 127.209 257.346 127.209ZM267.58 126.087C267.942 126.087 268.239 126.049 268.472 125.974C268.887 125.834 269.227 125.566 269.492 125.168C269.703 124.85 269.856 124.442 269.949 123.944C270.002 123.647 270.029 123.371 270.029 123.117C270.029 122.139 269.834 121.38 269.444 120.839C269.057 120.299 268.432 120.028 267.569 120.028H265.673V126.087H267.58ZM264.599 119.11H267.795C268.88 119.11 269.721 119.495 270.319 120.265C270.853 120.959 271.12 121.849 271.12 122.934C271.12 123.772 270.962 124.529 270.647 125.206C270.092 126.402 269.138 127 267.784 127H264.599V119.11ZM272.762 119.11H273.841V127H272.762V119.11ZM276.3 124.454C276.325 124.902 276.43 125.265 276.617 125.544C276.971 126.067 277.596 126.329 278.491 126.329C278.892 126.329 279.257 126.271 279.587 126.157C280.224 125.935 280.543 125.537 280.543 124.964C280.543 124.535 280.409 124.229 280.14 124.046C279.868 123.867 279.442 123.711 278.862 123.579L277.793 123.337C277.095 123.179 276.601 123.006 276.311 122.816C275.809 122.486 275.559 121.994 275.559 121.339C275.559 120.63 275.804 120.048 276.294 119.593C276.785 119.139 277.48 118.911 278.378 118.911C279.206 118.911 279.907 119.112 280.484 119.513C281.064 119.91 281.354 120.548 281.354 121.425H280.35C280.296 121.002 280.181 120.678 280.006 120.453C279.68 120.041 279.127 119.835 278.346 119.835C277.716 119.835 277.263 119.967 276.987 120.232C276.712 120.497 276.574 120.805 276.574 121.156C276.574 121.543 276.735 121.826 277.057 122.005C277.268 122.119 277.746 122.263 278.491 122.435L279.598 122.687C280.131 122.809 280.543 122.975 280.833 123.187C281.334 123.555 281.585 124.091 281.585 124.792C281.585 125.666 281.266 126.291 280.629 126.667C279.995 127.043 279.257 127.231 278.416 127.231C277.435 127.231 276.667 126.98 276.112 126.479C275.557 125.981 275.285 125.306 275.295 124.454H276.3ZM286.283 118.895C287.282 118.895 288.057 119.158 288.609 119.685C289.16 120.211 289.466 120.809 289.527 121.479H288.485C288.367 120.97 288.131 120.567 287.776 120.27C287.425 119.973 286.931 119.824 286.294 119.824C285.517 119.824 284.888 120.098 284.409 120.646C283.932 121.19 283.694 122.026 283.694 123.154C283.694 124.078 283.909 124.828 284.339 125.405C284.772 125.978 285.417 126.264 286.272 126.264C287.06 126.264 287.66 125.962 288.072 125.356C288.29 125.038 288.453 124.619 288.561 124.1H289.603C289.509 124.93 289.201 125.627 288.679 126.189C288.052 126.866 287.207 127.204 286.144 127.204C285.227 127.204 284.457 126.927 283.834 126.372C283.014 125.638 282.604 124.504 282.604 122.972C282.604 121.808 282.912 120.854 283.528 120.109C284.194 119.3 285.112 118.895 286.283 118.895ZM294.333 118.895C295.726 118.895 296.757 119.343 297.427 120.238C297.949 120.936 298.211 121.829 298.211 122.918C298.211 124.096 297.912 125.075 297.314 125.856C296.612 126.773 295.611 127.231 294.311 127.231C293.098 127.231 292.143 126.83 291.449 126.028C290.829 125.254 290.519 124.277 290.519 123.095C290.519 122.028 290.784 121.115 291.314 120.356C291.995 119.382 293.001 118.895 294.333 118.895ZM294.44 126.275C295.382 126.275 296.062 125.938 296.481 125.265C296.904 124.588 297.115 123.811 297.115 122.934C297.115 122.007 296.872 121.26 296.385 120.694C295.901 120.129 295.239 119.846 294.397 119.846C293.581 119.846 292.915 120.127 292.399 120.689C291.884 121.248 291.626 122.073 291.626 123.165C291.626 124.039 291.846 124.776 292.287 125.378C292.731 125.976 293.449 126.275 294.44 126.275ZM300.132 119.11L302.399 125.829L304.639 119.11H305.836L302.957 127H301.824L298.951 119.11H300.132ZM306.968 119.11H312.721V120.077H308.01V122.472H312.366V123.385H308.01V126.06H312.801V127H306.968V119.11ZM317.891 122.725C318.393 122.725 318.788 122.624 319.078 122.424C319.372 122.223 319.519 121.862 319.519 121.339C319.519 120.777 319.315 120.394 318.907 120.189C318.688 120.082 318.396 120.028 318.031 120.028H315.421V122.725H317.891ZM314.352 119.11H318.004C318.606 119.11 319.102 119.198 319.492 119.373C320.233 119.71 320.604 120.331 320.604 121.237C320.604 121.709 320.505 122.096 320.308 122.397C320.115 122.698 319.843 122.939 319.492 123.122C319.8 123.247 320.031 123.412 320.185 123.616C320.342 123.82 320.43 124.152 320.448 124.61L320.486 125.668C320.496 125.969 320.522 126.193 320.561 126.339C320.625 126.59 320.74 126.751 320.905 126.823V127H319.594C319.558 126.932 319.53 126.844 319.508 126.737C319.487 126.629 319.469 126.422 319.454 126.114L319.39 124.798C319.365 124.282 319.173 123.937 318.815 123.761C318.611 123.665 318.291 123.616 317.854 123.616H315.421V127H314.352V119.11ZM322.294 125.829H323.417V127H322.294V125.829ZM331.385 126.087C331.746 126.087 332.043 126.049 332.276 125.974C332.692 125.834 333.032 125.566 333.297 125.168C333.508 124.85 333.66 124.442 333.753 123.944C333.807 123.647 333.834 123.371 333.834 123.117C333.834 122.139 333.639 121.38 333.248 120.839C332.862 120.299 332.237 120.028 331.374 120.028H329.478V126.087H331.385ZM328.404 119.11H331.599C332.684 119.11 333.526 119.495 334.124 120.265C334.657 120.959 334.924 121.849 334.924 122.934C334.924 123.772 334.767 124.529 334.451 125.206C333.896 126.402 332.942 127 331.589 127H328.404V119.11ZM336.427 119.11H342.179V120.077H337.469V122.472H341.825V123.385H337.469V126.06H342.26V127H336.427V119.11ZM347.35 122.725C347.851 122.725 348.247 122.624 348.537 122.424C348.831 122.223 348.977 121.862 348.977 121.339C348.977 120.777 348.773 120.394 348.365 120.189C348.147 120.082 347.855 120.028 347.49 120.028H344.879V122.725H347.35ZM343.81 119.11H347.463C348.064 119.11 348.56 119.198 348.95 119.373C349.692 119.71 350.062 120.331 350.062 121.237C350.062 121.709 349.964 122.096 349.767 122.397C349.574 122.698 349.301 122.939 348.95 123.122C349.258 123.247 349.489 123.412 349.643 123.616C349.801 123.82 349.889 124.152 349.907 124.61L349.944 125.668C349.955 125.969 349.98 126.193 350.019 126.339C350.084 126.59 350.198 126.751 350.363 126.823V127H349.053C349.017 126.932 348.988 126.844 348.967 126.737C348.945 126.629 348.927 126.422 348.913 126.114L348.848 124.798C348.823 124.282 348.632 123.937 348.274 123.761C348.07 123.665 347.749 123.616 347.312 123.616H344.879V127H343.81V119.11ZM351.753 119.11H357.505V120.077H352.795V122.472H357.151V123.385H352.795V126.06H357.586V127H351.753V119.11ZM362.332 118.895C363.331 118.895 364.107 119.158 364.658 119.685C365.209 120.211 365.516 120.809 365.576 121.479H364.534C364.416 120.97 364.18 120.567 363.825 120.27C363.475 119.973 362.98 119.824 362.343 119.824C361.566 119.824 360.938 120.098 360.458 120.646C359.982 121.19 359.743 122.026 359.743 123.154C359.743 124.078 359.958 124.828 360.388 125.405C360.821 125.978 361.466 126.264 362.322 126.264C363.109 126.264 363.709 125.962 364.121 125.356C364.339 125.038 364.502 124.619 364.61 124.1H365.652C365.558 124.93 365.251 125.627 364.728 126.189C364.101 126.866 363.256 127.204 362.193 127.204C361.276 127.204 360.506 126.927 359.883 126.372C359.063 125.638 358.653 124.504 358.653 122.972C358.653 121.808 358.961 120.854 359.577 120.109C360.243 119.3 361.161 118.895 362.332 118.895ZM367.004 119.11H368.083V122.37H372.187V119.11H373.266V127H372.187V123.31H368.083V127H367.004V119.11ZM378.351 118.895C379.744 118.895 380.775 119.343 381.445 120.238C381.968 120.936 382.229 121.829 382.229 122.918C382.229 124.096 381.93 125.075 381.332 125.856C380.63 126.773 379.63 127.231 378.33 127.231C377.116 127.231 376.162 126.83 375.467 126.028C374.848 125.254 374.538 124.277 374.538 123.095C374.538 122.028 374.803 121.115 375.333 120.356C376.013 119.382 377.019 118.895 378.351 118.895ZM378.459 126.275C379.4 126.275 380.081 125.938 380.5 125.265C380.922 124.588 381.133 123.811 381.133 122.934C381.133 122.007 380.89 121.26 380.403 120.694C379.92 120.129 379.257 119.846 378.416 119.846C377.599 119.846 376.933 120.127 376.418 120.689C375.902 121.248 375.644 122.073 375.644 123.165C375.644 124.039 375.864 124.776 376.305 125.378C376.749 125.976 377.467 126.275 378.459 126.275ZM384.226 124.454C384.251 124.902 384.356 125.265 384.543 125.544C384.897 126.067 385.522 126.329 386.417 126.329C386.818 126.329 387.183 126.271 387.513 126.157C388.15 125.935 388.469 125.537 388.469 124.964C388.469 124.535 388.335 124.229 388.066 124.046C387.794 123.867 387.368 123.711 386.788 123.579L385.719 123.337C385.021 123.179 384.527 123.006 384.237 122.816C383.735 122.486 383.485 121.994 383.485 121.339C383.485 120.63 383.73 120.048 384.22 119.593C384.711 119.139 385.406 118.911 386.304 118.911C387.132 118.911 387.833 119.112 388.41 119.513C388.99 119.91 389.28 120.548 389.28 121.425H388.276C388.222 121.002 388.107 120.678 387.932 120.453C387.606 120.041 387.053 119.835 386.272 119.835C385.642 119.835 385.189 119.967 384.913 120.232C384.638 120.497 384.5 120.805 384.5 121.156C384.5 121.543 384.661 121.826 384.983 122.005C385.194 122.119 385.672 122.263 386.417 122.435L387.524 122.687C388.057 122.809 388.469 122.975 388.759 123.187C389.26 123.555 389.511 124.091 389.511 124.792C389.511 125.666 389.192 126.291 388.555 126.667C387.921 127.043 387.183 127.231 386.342 127.231C385.361 127.231 384.593 126.98 384.038 126.479C383.483 125.981 383.211 125.306 383.221 124.454H384.226ZM397.634 122.725C398.136 122.725 398.531 122.624 398.821 122.424C399.115 122.223 399.262 121.862 399.262 121.339C399.262 120.777 399.058 120.394 398.65 120.189C398.431 120.082 398.139 120.028 397.774 120.028H395.164V122.725H397.634ZM394.095 119.11H397.747C398.349 119.11 398.845 119.198 399.235 119.373C399.976 119.71 400.347 120.331 400.347 121.237C400.347 121.709 400.248 122.096 400.051 122.397C399.858 122.698 399.586 122.939 399.235 123.122C399.543 123.247 399.774 123.412 399.928 123.616C400.085 123.82 400.173 124.152 400.191 124.61L400.229 125.668C400.239 125.969 400.264 126.193 400.304 126.339C400.368 126.59 400.483 126.751 400.648 126.823V127H399.337C399.301 126.932 399.273 126.844 399.251 126.737C399.23 126.629 399.212 126.422 399.197 126.114L399.133 124.798C399.108 124.282 398.916 123.937 398.558 123.761C398.354 123.665 398.034 123.616 397.597 123.616H395.164V127H394.095V119.11ZM402.037 119.11H407.79V120.077H403.079V122.472H407.435V123.385H403.079V126.06H407.87V127H402.037V119.11ZM409.99 124.454C410.015 124.902 410.121 125.265 410.307 125.544C410.662 126.067 411.287 126.329 412.182 126.329C412.583 126.329 412.948 126.271 413.277 126.157C413.915 125.935 414.233 125.537 414.233 124.964C414.233 124.535 414.099 124.229 413.831 124.046C413.559 123.867 413.132 123.711 412.552 123.579L411.483 123.337C410.785 123.179 410.291 123.006 410.001 122.816C409.5 122.486 409.249 121.994 409.249 121.339C409.249 120.63 409.494 120.048 409.985 119.593C410.476 119.139 411.17 118.911 412.069 118.911C412.896 118.911 413.598 119.112 414.174 119.513C414.754 119.91 415.045 120.548 415.045 121.425H414.04C413.986 121.002 413.872 120.678 413.696 120.453C413.371 120.041 412.817 119.835 412.037 119.835C411.407 119.835 410.954 119.967 410.678 120.232C410.402 120.497 410.264 120.805 410.264 121.156C410.264 121.543 410.425 121.826 410.748 122.005C410.959 122.119 411.437 122.263 412.182 122.435L413.288 122.687C413.822 122.809 414.233 122.975 414.524 123.187C415.025 123.555 415.275 124.091 415.275 124.792C415.275 125.666 414.957 126.291 414.319 126.667C413.686 127.043 412.948 127.231 412.107 127.231C411.125 127.231 410.357 126.98 409.802 126.479C409.247 125.981 408.975 125.306 408.986 124.454H409.99ZM416.751 119.11H422.503V120.077H417.793V122.472H422.149V123.385H417.793V126.06H422.584V127H416.751V119.11ZM427.674 122.725C428.176 122.725 428.571 122.624 428.861 122.424C429.155 122.223 429.302 121.862 429.302 121.339C429.302 120.777 429.098 120.394 428.69 120.189C428.471 120.082 428.179 120.028 427.814 120.028H425.204V122.725H427.674ZM424.135 119.11H427.787C428.389 119.11 428.885 119.198 429.275 119.373C430.016 119.71 430.387 120.331 430.387 121.237C430.387 121.709 430.288 122.096 430.091 122.397C429.898 122.698 429.626 122.939 429.275 123.122C429.583 123.247 429.814 123.412 429.968 123.616C430.125 123.82 430.213 124.152 430.231 124.61L430.269 125.668C430.279 125.969 430.304 126.193 430.344 126.339C430.408 126.59 430.523 126.751 430.688 126.823V127H429.377C429.341 126.932 429.313 126.844 429.291 126.737C429.27 126.629 429.252 126.422 429.237 126.114L429.173 124.798C429.148 124.282 428.956 123.937 428.598 123.761C428.394 123.665 428.074 123.616 427.637 123.616H425.204V127H424.135V119.11ZM432.598 119.11L434.865 125.829L437.105 119.11H438.302L435.423 127H434.29L431.417 119.11H432.598ZM442.633 123.767L441.435 120.281L440.162 123.767H442.633ZM440.876 119.11H442.085L444.948 127H443.777L442.977 124.637H439.856L439.002 127H437.906L440.876 119.11ZM448.969 126.087C449.331 126.087 449.628 126.049 449.861 125.974C450.276 125.834 450.616 125.566 450.881 125.168C451.093 124.85 451.245 124.442 451.338 123.944C451.392 123.647 451.418 123.371 451.418 123.117C451.418 122.139 451.223 121.38 450.833 120.839C450.446 120.299 449.821 120.028 448.958 120.028H447.062V126.087H448.969ZM445.988 119.11H449.184C450.269 119.11 451.11 119.495 451.708 120.265C452.242 120.959 452.509 121.849 452.509 122.934C452.509 123.772 452.351 124.529 452.036 125.206C451.481 126.402 450.527 127 449.173 127H445.988V119.11ZM457.314 118.895C458.707 118.895 459.739 119.343 460.408 120.238C460.931 120.936 461.192 121.829 461.192 122.918C461.192 124.096 460.893 125.075 460.295 125.856C459.593 126.773 458.593 127.231 457.293 127.231C456.079 127.231 455.125 126.83 454.43 126.028C453.811 125.254 453.501 124.277 453.501 123.095C453.501 122.028 453.766 121.115 454.296 120.356C454.976 119.382 455.982 118.895 457.314 118.895ZM457.422 126.275C458.364 126.275 459.044 125.938 459.463 125.265C459.885 124.588 460.097 123.811 460.097 122.934C460.097 122.007 459.853 121.26 459.366 120.694C458.883 120.129 458.22 119.846 457.379 119.846C456.562 119.846 455.896 120.127 455.381 120.689C454.865 121.248 454.607 122.073 454.607 123.165C454.607 124.039 454.828 124.776 455.268 125.378C455.712 125.976 456.43 126.275 457.422 126.275ZM463.189 124.454C463.214 124.902 463.32 125.265 463.506 125.544C463.86 126.067 464.485 126.329 465.38 126.329C465.781 126.329 466.147 126.271 466.476 126.157C467.113 125.935 467.432 125.537 467.432 124.964C467.432 124.535 467.298 124.229 467.029 124.046C466.757 123.867 466.331 123.711 465.751 123.579L464.682 123.337C463.984 123.179 463.49 123.006 463.2 122.816C462.698 122.486 462.448 121.994 462.448 121.339C462.448 120.63 462.693 120.048 463.183 119.593C463.674 119.139 464.369 118.911 465.267 118.911C466.095 118.911 466.796 119.112 467.373 119.513C467.953 119.91 468.243 120.548 468.243 121.425H467.239C467.185 121.002 467.07 120.678 466.895 120.453C466.569 120.041 466.016 119.835 465.235 119.835C464.605 119.835 464.152 119.967 463.876 120.232C463.601 120.497 463.463 120.805 463.463 121.156C463.463 121.543 463.624 121.826 463.946 122.005C464.157 122.119 464.635 122.263 465.38 122.435L466.487 122.687C467.02 122.809 467.432 122.975 467.722 123.187C468.223 123.555 468.474 124.091 468.474 124.792C468.474 125.666 468.155 126.291 467.518 126.667C466.884 127.043 466.147 127.231 465.305 127.231C464.324 127.231 463.556 126.98 463.001 126.479C462.446 125.981 462.174 125.306 462.184 124.454H463.189ZM469.95 125.829H471.072V127H469.95V125.829Z" fill="white"/>
</svg>
